<?xml version="1.0" encoding="UTF-8" standalone="no"?>
<!DOCTYPE svg PUBLIC "-//W3C//DTD SVG 1.1//EN"
 "http://www.w3.org/Graphics/SVG/1.1/DTD/svg11.dtd">
<!-- Generated by graphviz version 2.40.1 (20161225.0304)
 -->
<!-- Title: trace Pages: 1 -->
<svg width="301pt" height="624pt"
 viewBox="0.00 0.00 301.00 624.00" xmlns="http://www.w3.org/2000/svg" xmlns:xlink="http://www.w3.org/1999/xlink">
<g id="graph0" class="graph" transform="scale(1 1) rotate(0) translate(4 620)">
<title>trace</title>
<polygon fill="#ffffff" stroke="transparent" points="-4,4 -4,-620 297,-620 297,4 -4,4"/>
<g id="clust1" class="cluster">
<title>cluster_AS7922</title>
<polygon fill="none" stroke="#608686" points="10,-96 10,-608 285,-608 285,-96 10,-96"/>
<text text-anchor="middle" x="147.5" y="-596" font-family="Times,serif" font-size="10.00" fill="#000000">AS7922</text>
<text text-anchor="middle" x="147.5" y="-586" font-family="Times,serif" font-size="10.00" fill="#000000">[COMCAST&#45;7922 &#45; Comcast Cable Communications, LLC, US]</text>
</g>
<g id="clust2" class="cluster">
<title>cluster_AS15169</title>
<polygon fill="none" stroke="#60baba" points="8,-8 8,-88 152,-88 152,-8 8,-8"/>
<text text-anchor="middle" x="80" y="-76" font-family="Times,serif" font-size="10.00" fill="#000000">AS15169</text>
<text text-anchor="middle" x="80" y="-66" font-family="Times,serif" font-size="10.00" fill="#000000">[GOOGLE &#45; Google LLC, US]</text>
</g>
<!-- 68.86.188.97 -->
<g id="node1" class="node">
<title>68.86.188.97</title>
<ellipse fill="#608686" stroke="#000000" cx="80" cy="-410" rx="56.5701" ry="18"/>
<text text-anchor="middle" x="80" y="-405.8" font-family="Times,serif" font-size="14.00" fill="#000000">68.86.188.97</text>
</g>
<!-- 68.86.188.181 -->
<g id="node7" class="node">
<title>68.86.188.181</title>
<ellipse fill="#608686" stroke="#000000" cx="80" cy="-338" rx="60.9135" ry="18"/>
<text text-anchor="middle" x="80" y="-333.8" font-family="Times,serif" font-size="14.00" fill="#000000">68.86.188.181</text>
</g>
<!-- 68.86.188.97&#45;&gt;68.86.188.181 -->
<g id="edge3" class="edge">
<title>68.86.188.97&#45;&gt;68.86.188.181</title>
<path fill="none" stroke="#a07070" d="M80,-391.8314C80,-384.131 80,-374.9743 80,-366.4166"/>
<polygon fill="#a07070" stroke="#a07070" points="83.5001,-366.4132 80,-356.4133 76.5001,-366.4133 83.5001,-366.4132"/>
</g>
<!-- 68.86.82.158 -->
<g id="node2" class="node">
<title>68.86.82.158</title>
<ellipse fill="#608686" stroke="#000000" cx="80" cy="-194" rx="56.5701" ry="18"/>
<text text-anchor="middle" x="80" y="-189.8" font-family="Times,serif" font-size="14.00" fill="#000000">68.86.82.158</text>
</g>
<!-- 66.208.233.86 -->
<g id="node4" class="node">
<title>66.208.233.86</title>
<ellipse fill="#608686" stroke="#000000" cx="80" cy="-122" rx="60.9135" ry="18"/>
<text text-anchor="middle" x="80" y="-117.8" font-family="Times,serif" font-size="14.00" fill="#000000">66.208.233.86</text>
</g>
<!-- 68.86.82.158&#45;&gt;66.208.233.86 -->
<g id="edge6" class="edge">
<title>68.86.82.158&#45;&gt;66.208.233.86</title>
<path fill="none" stroke="#a07070" d="M80,-175.8314C80,-168.131 80,-158.9743 80,-150.4166"/>
<polygon fill="#a07070" stroke="#a07070" points="83.5001,-150.4132 80,-140.4133 76.5001,-150.4133 83.5001,-150.4132"/>
</g>
<!-- 68.87.228.77 -->
<g id="node3" class="node">
<title>68.87.228.77</title>
<ellipse fill="#608686" stroke="#000000" cx="80" cy="-554" rx="56.5701" ry="18"/>
<text text-anchor="middle" x="80" y="-549.8" font-family="Times,serif" font-size="14.00" fill="#000000">68.87.228.77</text>
</g>
<!-- 162.151.45.86 -->
<g id="node5" class="node">
<title>162.151.45.86</title>
<ellipse fill="#608686" stroke="#000000" cx="80" cy="-482" rx="60.9135" ry="18"/>
<text text-anchor="middle" x="80" y="-477.8" font-family="Times,serif" font-size="14.00" fill="#000000">162.151.45.86</text>
</g>
<!-- 68.87.228.77&#45;&gt;162.151.45.86 -->
<g id="edge1" class="edge">
<title>68.87.228.77&#45;&gt;162.151.45.86</title>
<path fill="none" stroke="#a07070" d="M80,-535.8314C80,-528.131 80,-518.9743 80,-510.4166"/>
<polygon fill="#a07070" stroke="#a07070" points="83.5001,-510.4132 80,-500.4133 76.5001,-510.4133 83.5001,-510.4132"/>
</g>
<!-- 8.8.8.8 80/tcp -->
<g id="node8" class="node">
<title>8.8.8.8 80/tcp</title>
<polygon fill="#ff0000" stroke="#000000" points="143.6629,-26.5442 143.6629,-41.4558 106.37,-52 53.63,-52 16.3371,-41.4558 16.3371,-26.5442 53.63,-16 106.37,-16 143.6629,-26.5442"/>
<text text-anchor="middle" x="80" y="-29.8" font-family="Times,serif" font-size="14.00" fill="#000000">8.8.8.8 80/tcp</text>
</g>
<!-- 66.208.233.86&#45;&gt;8.8.8.8 80/tcp -->
<g id="edge7" class="edge">
<title>66.208.233.86&#45;&gt;8.8.8.8 80/tcp</title>
<path fill="none" stroke="#a07070" d="M80,-103.7663C80,-91.8492 80,-76.0384 80,-62.4817"/>
<polygon fill="#a07070" stroke="#a07070" points="83.5001,-62.2103 80,-52.2103 76.5001,-62.2103 83.5001,-62.2103"/>
</g>
<!-- 162.151.45.86&#45;&gt;68.86.188.97 -->
<g id="edge2" class="edge">
<title>162.151.45.86&#45;&gt;68.86.188.97</title>
<path fill="none" stroke="#a07070" d="M80,-463.8314C80,-456.131 80,-446.9743 80,-438.4166"/>
<polygon fill="#a07070" stroke="#a07070" points="83.5001,-438.4132 80,-428.4133 76.5001,-438.4133 83.5001,-438.4132"/>
</g>
<!-- 68.86.91.165 -->
<g id="node6" class="node">
<title>68.86.91.165</title>
<ellipse fill="#608686" stroke="#000000" cx="80" cy="-266" rx="56.5701" ry="18"/>
<text text-anchor="middle" x="80" y="-261.8" font-family="Times,serif" font-size="14.00" fill="#000000">68.86.91.165</text>
</g>
<!-- 68.86.91.165&#45;&gt;68.86.82.158 -->
<g id="edge5" class="edge">
<title>68.86.91.165&#45;&gt;68.86.82.158</title>
<path fill="none" stroke="#a07070" d="M80,-247.8314C80,-240.131 80,-230.9743 80,-222.4166"/>
<polygon fill="#a07070" stroke="#a07070" points="83.5001,-222.4132 80,-212.4133 76.5001,-222.4133 83.5001,-222.4132"/>
</g>
<!-- 68.86.188.181&#45;&gt;68.86.91.165 -->
<g id="edge4" class="edge">
<title>68.86.188.181&#45;&gt;68.86.91.165</title>
<path fill="none" stroke="#a07070" d="M80,-319.8314C80,-312.131 80,-302.9743 80,-294.4166"/>
<polygon fill="#a07070" stroke="#a07070" points="83.5001,-294.4132 80,-284.4133 76.5001,-294.4133 83.5001,-294.4132"/>
</g>
</g>
</svg>
